<svg width="69" height="70" viewBox="0 0 69 70" fill="none" xmlns="http://www.w3.org/2000/svg">
<path opacity="0.35" d="M34.5257 63.9799C50.3757 63.9799 63.2247 51.1309 63.2247 35.2808C63.2247 19.4307 50.3757 6.58173 34.5257 6.58173C18.6756 6.58173 5.8266 19.4307 5.8266 35.2808C5.8266 51.1309 18.6756 63.9799 34.5257 63.9799Z" fill="black"/>
<path d="M49.8739 43.0612C51.0621 40.7222 51.7451 38.0847 51.7451 35.2808C51.7451 25.77 44.0366 18.0614 34.5257 18.0614C31.7218 18.0614 29.0843 18.7444 26.7454 19.9326L49.8739 43.0612Z" fill="black"/>
<path d="M19.1774 27.5005C17.9893 29.8395 17.3062 32.4769 17.3062 35.2808C17.3062 44.7917 25.0148 52.5002 34.5257 52.5002C37.3296 52.5002 39.967 51.8172 42.306 50.6291L19.1774 27.5005Z" fill="black"/>
</svg>
