<svg width="55" height="52" viewBox="0 0 55 52" fill="none" xmlns="http://www.w3.org/2000/svg">
<path d="M54.7251 14.3275V5.51951C54.7251 5.29186 54.5952 5.0858 54.3942 4.99448L43.5062 0.0481255C43.4364 0.0163858 43.3609 0 43.2846 0H35.473C35.2546 0 35.058 0.136062 34.918 0.30993C34.0074 1.44076 30.7135 3.22637 27.7942 3.22637C24.8748 3.22637 21.4428 1.44076 20.5322 0.30993C20.3922 0.136062 20.1956 0 19.9772 0H12.1656C12.0893 0 12.0138 0.0163858 11.944 0.0481255L1.05595 4.99448C0.854953 5.0858 0.725098 5.29186 0.725098 5.51951V14.3275C0.725098 14.6908 1.04677 14.9625 1.38967 14.8887L11.3853 12.7387C11.7282 12.665 12.0499 12.9366 12.0499 13.2999V51.4268C12.0499 51.7434 12.2972 52 12.6023 52H27.7942H42.8479C43.153 52 43.4003 51.7434 43.4003 51.4268V13.2999C43.4003 12.9366 43.722 12.665 44.0649 12.7387L54.0605 14.8887C54.4034 14.9625 54.7251 14.6908 54.7251 14.3275Z" fill="black"/>
</svg>
