<svg width="254" height="198" viewBox="0 0 254 198" fill="none" xmlns="http://www.w3.org/2000/svg">
<path opacity="0.8" d="M75.4785 24.9623C55.2076 45.7157 7.256 111.26 0.737616 120.901C0.26281 121.603 0.48694 122.365 1.21521 122.799L15.7697 131.47C16.5019 131.906 17.4301 131.83 18.0819 131.281L76.6081 81.9708C77.9087 80.875 79.8967 81.7996 79.8967 83.5003V191.714C79.8967 192.746 80.6811 193.608 81.7079 193.706L126.811 197.982C126.937 197.994 127.063 197.994 127.189 197.982L172.292 193.706C173.319 193.608 174.103 192.746 174.103 191.714V83.5003C174.103 81.7996 176.091 80.875 177.392 81.9708L235.918 131.281C236.57 131.83 237.498 131.906 238.23 131.47L252.785 122.799C253.513 122.365 253.737 121.603 253.262 120.901C246.744 111.26 198.792 45.7157 178.522 24.9623C178.352 24.7885 178.164 24.6608 177.943 24.5594L152.655 12.9475C152.447 12.8519 152.257 12.7212 152.093 12.5612L139.806 0.56874C139.432 0.204111 138.931 0 138.409 0H115.591C115.069 0 114.568 0.204111 114.194 0.56874L101.907 12.5612C101.743 12.7212 101.553 12.8519 101.345 12.9475L76.057 24.5594C75.8362 24.6608 75.6482 24.7885 75.4785 24.9623Z" fill="white"/>
</svg>
