<svg width="218" height="203" viewBox="0 0 218 203" fill="none" xmlns="http://www.w3.org/2000/svg">
<path opacity="0.8" d="M218 55.9324V21.5473C218 20.6586 217.476 19.8542 216.664 19.4977L172.709 0.187875C172.427 0.0639676 172.122 0 171.814 0H140.278C139.397 0 138.603 0.531165 138.038 1.20992C134.362 5.62449 121.064 12.5953 109.279 12.5953C97.4932 12.5953 83.6381 5.62449 79.9621 1.20992C79.3969 0.531165 78.6031 0 77.7216 0H46.1855C45.8776 0 45.5731 0.0639676 45.291 0.187875L1.33565 19.4977C0.524232 19.8542 0 20.6586 0 21.5473V55.9324C0 57.3508 1.2986 58.4112 2.68291 58.1233L43.0358 49.73C44.4201 49.4421 45.7187 50.5025 45.7187 51.9209V200.762C45.7187 201.998 46.7172 203 47.9488 203H109.279H170.051C171.283 203 172.281 201.998 172.281 200.762V51.9209C172.281 50.5025 173.58 49.4421 174.964 49.73L215.317 58.1233C216.701 58.4112 218 57.3508 218 55.9324Z" fill="white"/>
</svg>
