<svg width="62" height="62" viewBox="0 0 62 62" fill="none" xmlns="http://www.w3.org/2000/svg">
<g clip-path="url(#clip0_18_304)">
<path opacity="0.35" d="M45.9368 13.0639C42.6818 8.29769 37.2078 5.16669 31 5.16669C22.7411 5.16669 15.7919 10.7079 13.6271 18.2719C7.38834 19.1864 2.58334 24.5081 2.58334 31C2.58334 38.1326 8.36742 43.9167 15.5 43.9167H43.9167C52.4778 43.9167 59.4167 36.9779 59.4167 28.4167C59.4167 20.5427 53.5422 14.0559 45.9368 13.0639Z" fill="black"/>
<path d="M20.6667 53.0565C20.6667 55.1412 18.9307 56.8333 16.7917 56.8333C14.6527 56.8333 12.9167 55.1412 12.9167 53.0565C12.9167 51.801 14.3194 49.1686 15.4354 47.2698C16.0348 46.2468 17.5434 46.2468 18.1479 47.2698C19.2639 49.1686 20.6667 51.801 20.6667 53.0565Z" fill="black"/>
<path d="M36.1667 44.361C36.1667 46.9676 33.852 49.0833 31 49.0833C28.148 49.0833 25.8333 46.9676 25.8333 44.361C25.8333 42.7929 27.7037 39.5017 29.1917 37.1276C29.9925 35.8489 32.0023 35.8489 32.8083 37.1276C34.2963 39.5017 36.1667 42.7929 36.1667 44.361Z" fill="black"/>
<path d="M49.0833 53.0565C49.0833 55.1412 47.3473 56.8333 45.2083 56.8333C43.0693 56.8333 41.3333 55.1412 41.3333 53.0565C41.3333 51.801 42.7361 49.1686 43.8521 47.2698C44.454 46.2468 45.9601 46.2468 46.5646 47.2698C47.6806 49.1686 49.0833 51.801 49.0833 53.0565Z" fill="black"/>
</g>
<defs>
<clipPath id="clip0_18_304">
<rect width="62" height="62" fill="white"/>
</clipPath>
</defs>
</svg>
