<svg width="62" height="62" viewBox="0 0 62 62" fill="none" xmlns="http://www.w3.org/2000/svg">
<g clip-path="url(#clip0_18_352)">
<path opacity="0.35" d="M45.9368 13.0639C42.6818 8.29769 37.2078 5.16669 31 5.16669C22.7411 5.16669 15.7919 10.7079 13.6271 18.2719C7.38834 19.1864 2.58334 24.5081 2.58334 31C2.58334 38.1326 8.36742 43.9167 15.5 43.9167H43.9167C52.4778 43.9167 59.4167 36.9779 59.4167 28.4167C59.4167 20.5427 53.5422 14.0559 45.9368 13.0639Z" fill="black"/>
<path d="M41.2455 43.7565C40.8761 42.377 39.4682 41.5555 38.0809 41.9301L34.6528 42.8497L35.5725 39.4216C35.9419 38.0447 35.1256 36.6265 33.7461 36.2571C32.364 35.8825 30.9509 36.7091 30.5815 38.0835L29.6618 41.5116L27.1508 39.0006C26.1408 37.9905 24.5081 37.9905 23.498 39.0006C22.4879 40.0106 22.4879 41.6433 23.498 42.6534L26.009 45.1644L22.5809 46.0841C21.2014 46.4535 20.3851 47.8691 20.7545 49.2486C21.0645 50.4008 22.1082 51.1603 23.25 51.1603C23.4696 51.1603 23.6943 51.1319 23.9191 51.0725L27.3472 50.1528L26.4275 53.5809C26.0581 54.9578 26.8744 56.3761 28.2539 56.7455C28.4787 56.8049 28.7034 56.8333 28.9256 56.8333C30.0648 56.8333 31.1111 56.0712 31.4185 54.9191L32.3382 51.491L34.8492 54.002C35.3529 54.5057 36.0143 54.7589 36.6756 54.7589C37.3369 54.7589 37.9983 54.5057 38.502 54.002C39.5121 52.9919 39.5121 51.3592 38.502 50.3491L35.991 47.8381L39.4191 46.9185C40.796 46.5516 41.6149 45.1334 41.2455 43.7565Z" fill="black"/>
</g>
<defs>
<clipPath id="clip0_18_352">
<rect width="62" height="62" fill="white"/>
</clipPath>
</defs>
</svg>
