<svg width="62" height="53" viewBox="0 0 62 53" fill="none" xmlns="http://www.w3.org/2000/svg">
<path opacity="0.35" d="M50.3311 14.1627C47.3912 6.33258 39.8582 0.75 31 0.75C20.3773 0.75 11.6353 8.76867 10.4754 19.0788C4.5105 20.2232 0 25.4518 0 31.75C0 38.8826 5.78408 44.6667 12.9167 44.6667H46.5C55.0612 44.6667 62 37.7278 62 29.1667C62 21.9308 57.0348 15.8728 50.3311 14.1627Z" fill="black"/>
<path d="M49.0833 52.4167C50.5101 52.4167 51.6667 51.2601 51.6667 49.8333C51.6667 48.4066 50.5101 47.25 49.0833 47.25C47.6566 47.25 46.5 48.4066 46.5 49.8333C46.5 51.2601 47.6566 52.4167 49.0833 52.4167Z" fill="black"/>
<path d="M49.0833 31.75C50.5101 31.75 51.6667 30.5934 51.6667 29.1667C51.6667 27.74 50.5101 26.5834 49.0833 26.5834C47.6566 26.5834 46.5 27.74 46.5 29.1667C46.5 30.5934 47.6566 31.75 49.0833 31.75Z" fill="black"/>
<path d="M54.25 42.0833C55.6767 42.0833 56.8333 40.9267 56.8333 39.5C56.8333 38.0732 55.6767 36.9166 54.25 36.9166C52.8233 36.9166 51.6667 38.0732 51.6667 39.5C51.6667 40.9267 52.8233 42.0833 54.25 42.0833Z" fill="black"/>
<path d="M43.9167 42.0833C45.3434 42.0833 46.5 40.9267 46.5 39.5C46.5 38.0732 45.3434 36.9166 43.9167 36.9166C42.4899 36.9166 41.3333 38.0732 41.3333 39.5C41.3333 40.9267 42.4899 42.0833 43.9167 42.0833Z" fill="black"/>
<path d="M55.1774 37.0898L51.6667 35.6251V29.1667L46.7635 28.043L41.5968 38.3608L43.3406 42.0136L46.5 43.3751V49.8334L51.3928 50.9546L56.5595 40.6341L55.1774 37.0898Z" fill="black"/>
<path d="M28.4167 49.8333C29.8434 49.8333 31 48.6767 31 47.25C31 45.8232 29.8434 44.6666 28.4167 44.6666C26.9899 44.6666 25.8333 45.8232 25.8333 47.25C25.8333 48.6767 26.9899 49.8333 28.4167 49.8333Z" fill="black"/>
<path d="M28.4167 29.1667C29.8434 29.1667 31 28.0101 31 26.5833C31 25.1566 29.8434 24 28.4167 24C26.9899 24 25.8333 25.1566 25.8333 26.5833C25.8333 28.0101 26.9899 29.1667 28.4167 29.1667Z" fill="black"/>
<path d="M33.5833 39.5C35.0101 39.5 36.1667 38.3434 36.1667 36.9167C36.1667 35.49 35.0101 34.3334 33.5833 34.3334C32.1566 34.3334 31 35.49 31 36.9167C31 38.3434 32.1566 39.5 33.5833 39.5Z" fill="black"/>
<path d="M23.25 39.5C24.6767 39.5 25.8333 38.3434 25.8333 36.9167C25.8333 35.49 24.6767 34.3334 23.25 34.3334C21.8233 34.3334 20.6667 35.49 20.6667 36.9167C20.6667 38.3434 21.8233 39.5 23.25 39.5Z" fill="black"/>
<path d="M34.5108 34.5064L31 33.0417V26.5833L26.0968 25.4596L20.9302 35.7774L22.6739 39.4303L25.8333 40.7917V47.25L30.7262 48.3712L35.8928 38.0508L34.5108 34.5064Z" fill="black"/>
</svg>
