<svg width="62" height="62" viewBox="0 0 62 62" fill="none" xmlns="http://www.w3.org/2000/svg">
<g clip-path="url(#clip0_18_323)">
<path opacity="0.35" fill-rule="evenodd" clip-rule="evenodd" d="M28.5019 4.23665C28.9282 3.23431 29.9098 2.58331 31 2.58331C32.0902 2.58331 33.0718 3.23431 33.4981 4.23665L36.0892 10.3488C36.3191 10.8939 36.7763 11.3098 37.3369 11.4932C37.9001 11.6766 38.5123 11.6069 39.0187 11.3021L44.7072 7.88173C45.6398 7.32115 46.8177 7.37281 47.6987 8.0109C48.5796 8.65156 48.9929 9.75465 48.7475 10.8164L47.2518 17.2851C47.1174 17.8611 47.2414 18.4682 47.5902 18.9461C47.9389 19.4241 48.4762 19.7289 49.0653 19.7806L55.6786 20.3566C56.7636 20.4522 57.6858 21.1859 58.0243 22.2218C58.3601 23.2577 58.0449 24.3944 57.2234 25.1074L52.2118 29.4603C51.7648 29.8478 51.5091 30.411 51.5091 31.0026C51.5091 31.5941 51.7648 32.1573 52.2118 32.5448L57.2234 36.8977C58.0449 37.6107 58.3601 38.7474 58.0243 39.7833C57.6884 40.8192 56.7636 41.5529 55.6786 41.6485L49.0653 42.2246C48.4762 42.2762 47.9389 42.5811 47.5902 43.059C47.244 43.5369 47.12 44.144 47.2518 44.7201L48.7475 51.1887C48.9929 52.2505 48.5796 53.3536 47.6987 53.9942C46.8177 54.6349 45.6398 54.6866 44.7072 54.1234L39.0187 50.7031C38.5123 50.3982 37.8975 50.3285 37.3369 50.5119C36.7738 50.6953 36.3191 51.1112 36.0892 51.6563L33.4981 57.7685C33.0718 58.7656 32.0902 59.4166 31 59.4166C29.9098 59.4166 28.9282 58.7656 28.5019 57.7633L25.9108 51.6511C25.6809 51.1061 25.2237 50.6901 24.6631 50.5067C24.0999 50.3233 23.4877 50.3931 22.9813 50.6979L17.2903 54.1208C16.3577 54.6814 15.1797 54.6297 14.2988 53.9916C13.4178 53.351 13.0045 52.2479 13.2499 51.1861L14.7457 44.7175C14.88 44.1414 14.756 43.5343 14.4073 43.0564C14.0585 42.5785 13.5212 42.2736 12.9322 42.222L6.31884 41.6459C5.23384 41.5503 4.31159 40.8166 3.97317 39.7807C3.63734 38.7448 3.9525 37.6081 4.774 36.8951L9.78567 32.5422C10.2326 32.1547 10.4883 31.5916 10.4883 31C10.4883 30.4084 10.2326 29.8452 9.78567 29.4577L4.774 25.1048C3.9525 24.3918 3.63734 23.2551 3.97317 22.2192C4.31159 21.1833 5.23384 20.4496 6.31884 20.3541L12.9322 19.778C13.5212 19.7263 14.0585 19.4215 14.4073 18.9436C14.7534 18.4656 14.8774 17.8586 14.7457 17.2825L13.2499 10.8164C13.0045 9.75465 13.4153 8.65156 14.2962 8.0109C15.1771 7.37023 16.3551 7.31856 17.2877 7.88173L22.9762 11.3021C23.4851 11.6069 24.0999 11.6766 24.6631 11.4932C25.2263 11.3098 25.6809 10.8939 25.9108 10.3488L28.5019 4.23665Z" fill="black"/>
<path d="M43.9167 31C43.9167 38.1326 38.1326 43.9166 31 43.9166C23.8674 43.9166 18.0833 38.1326 18.0833 31C18.0833 23.8674 23.8674 18.0833 31 18.0833C38.1326 18.0833 43.9167 23.8674 43.9167 31Z" fill="black"/>
</g>
<defs>
<clipPath id="clip0_18_323">
<rect width="62" height="62" fill="white"/>
</clipPath>
</defs>
</svg>
