<svg width="62" height="62" viewBox="0 0 62 62" fill="none" xmlns="http://www.w3.org/2000/svg">
<g clip-path="url(#clip0_18_332)">
<path opacity="0.35" d="M43.9167 31H9.04166C6.90266 31 5.16666 29.264 5.16666 27.125C5.16666 24.986 6.90266 23.25 9.04166 23.25H43.9167C46.7661 23.25 49.0833 20.9328 49.0833 18.0834C49.0833 15.2339 46.7661 12.9167 43.9167 12.9167C41.9249 12.9167 40.1476 14.0508 39.2744 15.8772C38.3522 17.8095 36.0401 18.6259 34.1077 17.7036C32.178 16.7814 31.3591 14.4667 32.2813 12.5369C34.4203 8.06002 38.9877 5.16669 43.9167 5.16669C51.0389 5.16669 56.8333 10.9611 56.8333 18.0834C56.8333 25.2056 51.0389 31 43.9167 31Z" fill="black"/>
<path d="M41.3333 56.8334C39.1943 56.8334 37.4583 55.0974 37.4583 52.9584C37.4583 50.8194 39.1943 49.0834 41.3333 49.0834C42.1316 49.0834 42.873 48.7217 43.3664 48.0939C43.6558 47.7245 44.1053 46.9366 43.834 45.8025C43.5731 44.7279 42.3667 43.9167 41.0259 43.9167H19.0056C16.8666 43.9167 15.1306 42.1807 15.1306 40.0417C15.1306 37.9027 16.8666 36.1667 19.0056 36.1667H41.0233C45.9239 36.1667 50.2742 39.4553 51.3644 43.9916C52.1239 47.1433 51.4238 50.3879 49.4527 52.8912C47.4791 55.397 44.5186 56.8334 41.3333 56.8334Z" fill="black"/>
</g>
<defs>
<clipPath id="clip0_18_332">
<rect width="62" height="62" fill="white"/>
</clipPath>
</defs>
</svg>
