<svg width="31" height="31" viewBox="0 0 31 31" fill="none" xmlns="http://www.w3.org/2000/svg">
<g clip-path="url(#clip0_367_2696)">
<path opacity="0.35" d="M21.9583 15.5H4.52081C3.45131 15.5 2.58331 14.632 2.58331 13.5625C2.58331 12.493 3.45131 11.625 4.52081 11.625H21.9583C23.383 11.625 24.5416 10.4664 24.5416 9.04171C24.5416 7.617 23.383 6.45837 21.9583 6.45837C20.9624 6.45837 20.0738 7.02542 19.6372 7.93862C19.1761 8.90479 18.02 9.31296 17.0539 8.85183C16.089 8.39071 15.6795 7.23337 16.1406 6.2685C17.2101 4.03004 19.4938 2.58337 21.9583 2.58337C25.5194 2.58337 28.4166 5.48058 28.4166 9.04171C28.4166 12.6028 25.5194 15.5 21.9583 15.5Z" fill="#E9B727"/>
<path d="M20.6667 28.4167C19.5972 28.4167 18.7292 27.5487 18.7292 26.4792C18.7292 25.4097 19.5972 24.5417 20.6667 24.5417C21.0658 24.5417 21.4365 24.3609 21.6832 24.047C21.8279 23.8623 22.0526 23.4683 21.917 22.9013C21.7866 22.364 21.1833 21.9584 20.513 21.9584H9.50281C8.43331 21.9584 7.56531 21.0904 7.56531 20.0209C7.56531 18.9514 8.43331 18.0834 9.50281 18.0834H20.5117C22.962 18.0834 25.1371 19.7277 25.6822 21.9958C26.062 23.5717 25.7119 25.194 24.7264 26.4456C23.7396 27.6985 22.2593 28.4167 20.6667 28.4167Z" fill="#E9B727"/>
</g>
<defs>
<clipPath id="clip0_367_2696">
<rect width="31" height="31" fill="white"/>
</clipPath>
</defs>
</svg>
