<svg width="31" height="31" viewBox="0 0 31 31" fill="none" xmlns="http://www.w3.org/2000/svg">
<g clip-path="url(#clip0_367_2698)">
<path opacity="0.35" d="M22.9684 6.532C21.3409 4.14887 18.6039 2.58337 15.5 2.58337C11.3706 2.58337 7.89598 5.354 6.81356 9.136C3.69419 9.59325 1.29169 12.2541 1.29169 15.5C1.29169 19.0663 4.18373 21.9584 7.75002 21.9584H21.9584C26.2389 21.9584 29.7084 18.489 29.7084 14.2084C29.7084 10.2714 26.7711 7.028 22.9684 6.532Z" fill="#E9B727"/>
<path d="M10.3333 26.5283C10.3333 27.5707 9.46531 28.4167 8.39581 28.4167C7.32631 28.4167 6.45831 27.5707 6.45831 26.5283C6.45831 25.9006 7.15969 24.5843 7.71769 23.635C8.01735 23.1235 8.77169 23.1235 9.07394 23.635C9.63194 24.5843 10.3333 25.9006 10.3333 26.5283Z" fill="#E9B727"/>
<path d="M18.0834 22.1805C18.0834 23.4838 16.926 24.5417 15.5 24.5417C14.074 24.5417 12.9167 23.4838 12.9167 22.1805C12.9167 21.3965 13.8519 19.7509 14.5959 18.5639C14.9963 17.9245 16.0012 17.9245 16.4042 18.5639C17.1482 19.7509 18.0834 21.3965 18.0834 22.1805Z" fill="#E9B727"/>
<path d="M24.5417 26.5283C24.5417 27.5707 23.6737 28.4167 22.6042 28.4167C21.5347 28.4167 20.6667 27.5707 20.6667 26.5283C20.6667 25.9006 21.3681 24.5843 21.9261 23.635C22.227 23.1235 22.9801 23.1235 23.2823 23.635C23.8403 24.5843 24.5417 25.9006 24.5417 26.5283Z" fill="#E9B727"/>
</g>
<defs>
<clipPath id="clip0_367_2698">
<rect width="31" height="31" fill="white"/>
</clipPath>
</defs>
</svg>
