<svg width="31" height="31" viewBox="0 0 31 31" fill="none" xmlns="http://www.w3.org/2000/svg">
<g clip-path="url(#clip0_367_2700)">
<path opacity="0.35" d="M22.9684 6.532C21.3409 4.14887 18.6039 2.58337 15.5 2.58337C11.3706 2.58337 7.89598 5.354 6.81356 9.136C3.69419 9.59325 1.29169 12.2541 1.29169 15.5C1.29169 19.0663 4.18373 21.9584 7.75002 21.9584H21.9584C26.2389 21.9584 29.7084 18.489 29.7084 14.2084C29.7084 10.2714 26.7711 7.028 22.9684 6.532Z" fill="#E9B727"/>
<path d="M20.6227 21.8782C20.438 21.1885 19.7341 20.7777 19.0404 20.965L17.3264 21.4248L17.7862 19.7108C17.9709 19.0223 17.5628 18.3132 16.873 18.1285C16.182 17.9412 15.4754 18.3545 15.2907 19.0417L14.8309 20.7558L13.5754 19.5003C13.0704 18.9952 12.254 18.9952 11.749 19.5003C11.2439 20.0053 11.2439 20.8216 11.749 21.3267L13.0045 22.5822L11.2904 23.042C10.6007 23.2267 10.1925 23.9345 10.3772 24.6243C10.5322 25.2004 11.0541 25.5801 11.625 25.5801C11.7348 25.5801 11.8472 25.5659 11.9595 25.5362L13.6736 25.0764L13.2137 26.7904C13.029 27.4789 13.4372 28.188 14.1269 28.3727C14.2393 28.4024 14.3517 28.4166 14.4628 28.4166C15.0324 28.4166 15.5555 28.0356 15.7092 27.4595L16.1691 25.7455L17.4246 27.001C17.6764 27.2528 18.0071 27.3794 18.3378 27.3794C18.6684 27.3794 18.9991 27.2528 19.251 27.001C19.756 26.4959 19.756 25.6796 19.251 25.1745L17.9955 23.919L19.7095 23.4592C20.398 23.2758 20.8074 22.5667 20.6227 21.8782Z" fill="#E9B727"/>
</g>
<defs>
<clipPath id="clip0_367_2700">
<rect width="31" height="31" fill="white"/>
</clipPath>
</defs>
</svg>
