<svg width="31" height="31" viewBox="0 0 31 31" fill="none" xmlns="http://www.w3.org/2000/svg">
<g clip-path="url(#clip0_367_2695)">
<path opacity="0.35" fill-rule="evenodd" clip-rule="evenodd" d="M14.2509 2.11829C14.4641 1.61713 14.9549 1.29163 15.5 1.29163C16.0451 1.29163 16.5359 1.61713 16.749 2.11829L18.0446 5.17438C18.1595 5.44692 18.3881 5.65488 18.6684 5.74658C18.95 5.83829 19.2561 5.80342 19.5093 5.651L22.3536 3.94083C22.8198 3.66054 23.4088 3.68638 23.8493 4.00542C24.2898 4.32575 24.4964 4.87729 24.3737 5.40817L23.6258 8.6425C23.5587 8.93054 23.6207 9.23408 23.7951 9.47304C23.9694 9.712 24.2381 9.86442 24.5326 9.89025L27.8393 10.1783C28.3818 10.2261 28.8429 10.5929 29.0121 11.1109C29.18 11.6288 29.0224 12.1972 28.6117 12.5537L26.1058 14.7301C25.8824 14.9239 25.7545 15.2055 25.7545 15.5013C25.7545 15.797 25.8824 16.0786 26.1058 16.2724L28.6117 18.4488C29.0224 18.8053 29.18 19.3737 29.0121 19.8916C28.8442 20.4096 28.3818 20.7764 27.8393 20.8242L24.5326 21.1122C24.2381 21.1381 23.9694 21.2905 23.7951 21.5295C23.622 21.7684 23.56 22.072 23.6258 22.36L24.3737 25.5943C24.4964 26.1252 24.2898 26.6767 23.8493 26.9971C23.4088 27.3174 22.8198 27.3433 22.3536 27.0617L19.5093 25.3515C19.2561 25.1991 18.9487 25.1642 18.6684 25.2559C18.3868 25.3476 18.1595 25.5556 18.0446 25.8281L16.749 28.8842C16.5359 29.3828 16.0451 29.7083 15.5 29.7083C14.9549 29.7083 14.4641 29.3828 14.2509 28.8816L12.9554 25.8255C12.8404 25.553 12.6118 25.345 12.3315 25.2533C12.0499 25.1616 11.7438 25.1965 11.4906 25.3489L8.64509 27.0604C8.1788 27.3407 7.5898 27.3148 7.14934 26.9958C6.70889 26.6755 6.50222 26.1239 6.62493 25.593L7.3728 22.3587C7.43997 22.0707 7.37797 21.7671 7.20359 21.5282C7.02922 21.2892 6.76055 21.1368 6.46605 21.111L3.15939 20.8229C2.61689 20.7751 2.15576 20.4083 1.98655 19.8903C1.81864 19.3724 1.97622 18.804 2.38697 18.4475L4.8928 16.2711C5.11626 16.0773 5.24414 15.7958 5.24414 15.5C5.24414 15.2042 5.11626 14.9226 4.8928 14.7288L2.38697 12.5524C1.97622 12.1959 1.81864 11.6275 1.98655 11.1096C2.15576 10.5916 2.61689 10.2248 3.15939 10.177L6.46605 9.88896C6.76055 9.86313 7.02922 9.71071 7.20359 9.47175C7.37668 9.23279 7.43868 8.92925 7.3728 8.64121L6.62493 5.40817C6.50222 4.87729 6.70759 4.32575 7.14805 4.00542C7.58851 3.68508 8.17751 3.65925 8.6438 3.94083L11.4881 5.651C11.7425 5.80342 12.0499 5.83829 12.3315 5.74658C12.6131 5.65488 12.8404 5.44692 12.9554 5.17438L14.2509 2.11829Z" fill="#E9B727"/>
<path d="M21.9584 15.5C21.9584 19.0663 19.0663 21.9583 15.5 21.9583C11.9337 21.9583 9.04169 19.0663 9.04169 15.5C9.04169 11.9337 11.9337 9.04163 15.5 9.04163C19.0663 9.04163 21.9584 11.9337 21.9584 15.5Z" fill="#E9B727"/>
</g>
<defs>
<clipPath id="clip0_367_2695">
<rect width="31" height="31" fill="white"/>
</clipPath>
</defs>
</svg>
