<svg width="31" height="31" viewBox="0 0 31 31" fill="none" xmlns="http://www.w3.org/2000/svg">
<path opacity="0.35" d="M25.1655 10.5813C23.6956 6.66629 19.9291 3.875 15.5 3.875C10.1887 3.875 5.81767 7.88433 5.23771 13.0394C2.25525 13.6116 0 16.2259 0 19.375C0 22.9413 2.89204 25.8333 6.45833 25.8333H23.25C27.5306 25.8333 31 22.3639 31 18.0833C31 14.4654 28.5174 11.4364 25.1655 10.5813Z" fill="#E9B727"/>
<path d="M24.5417 29.7083C25.255 29.7083 25.8333 29.13 25.8333 28.4167C25.8333 27.7033 25.255 27.125 24.5417 27.125C23.8283 27.125 23.25 27.7033 23.25 28.4167C23.25 29.13 23.8283 29.7083 24.5417 29.7083Z" fill="#E9B727"/>
<path d="M24.5417 19.3751C25.255 19.3751 25.8333 18.7968 25.8333 18.0834C25.8333 17.37 25.255 16.7917 24.5417 16.7917C23.8283 16.7917 23.25 17.37 23.25 18.0834C23.25 18.7968 23.8283 19.3751 24.5417 19.3751Z" fill="#E9B727"/>
<path d="M27.125 24.5416C27.8383 24.5416 28.4166 23.9633 28.4166 23.2499C28.4166 22.5366 27.8383 21.9583 27.125 21.9583C26.4116 21.9583 25.8333 22.5366 25.8333 23.2499C25.8333 23.9633 26.4116 24.5416 27.125 24.5416Z" fill="#E9B727"/>
<path d="M21.9584 24.5416C22.6717 24.5416 23.25 23.9633 23.25 23.2499C23.25 22.5366 22.6717 21.9583 21.9584 21.9583C21.245 21.9583 20.6667 22.5366 20.6667 23.2499C20.6667 23.9633 21.245 24.5416 21.9584 24.5416Z" fill="#E9B727"/>
<path d="M27.5887 22.0449L25.8333 21.3125V18.0834L23.3817 17.5215L20.7984 22.6804L21.6703 24.5068L23.25 25.1875V28.4167L25.6964 28.9773L28.2797 23.8171L27.5887 22.0449Z" fill="#E9B727"/>
<path d="M14.2084 28.4166C14.9217 28.4166 15.5 27.8383 15.5 27.1249C15.5 26.4116 14.9217 25.8333 14.2084 25.8333C13.495 25.8333 12.9167 26.4116 12.9167 27.1249C12.9167 27.8383 13.495 28.4166 14.2084 28.4166Z" fill="#E9B727"/>
<path d="M14.2084 18.0833C14.9217 18.0833 15.5 17.505 15.5 16.7917C15.5 16.0783 14.9217 15.5 14.2084 15.5C13.495 15.5 12.9167 16.0783 12.9167 16.7917C12.9167 17.505 13.495 18.0833 14.2084 18.0833Z" fill="#E9B727"/>
<path d="M16.7917 23.2501C17.505 23.2501 18.0833 22.6718 18.0833 21.9584C18.0833 21.245 17.505 20.6667 16.7917 20.6667C16.0783 20.6667 15.5 21.245 15.5 21.9584C15.5 22.6718 16.0783 23.2501 16.7917 23.2501Z" fill="#E9B727"/>
<path d="M11.625 23.2501C12.3383 23.2501 12.9166 22.6718 12.9166 21.9584C12.9166 21.245 12.3383 20.6667 11.625 20.6667C10.9116 20.6667 10.3333 21.245 10.3333 21.9584C10.3333 22.6718 10.9116 23.2501 11.625 23.2501Z" fill="#E9B727"/>
<path d="M17.2554 20.7532L15.5 20.0208V16.7916L13.0484 16.2297L10.4651 21.3887L11.337 23.2151L12.9167 23.8958V27.1249L15.3631 27.6855L17.9464 22.5253L17.2554 20.7532Z" fill="#E9B727"/>
</svg>
