<svg width="24" height="24" viewBox="0 0 24 24" fill="none" xmlns="http://www.w3.org/2000/svg">
<g clip-path="url(#clip0_20_928)">
<path opacity="0.35" d="M10.121 14.121C10.707 13.535 16.535 7.70702 17.121 7.12102C18.293 5.94902 18.293 4.05002 17.121 2.87802C15.949 1.70602 14.05 1.70602 12.878 2.87802C12.292 3.46402 6.46399 9.29202 5.87799 9.87802C4.70599 11.05 4.70599 12.949 5.87799 14.121C7.04999 15.293 8.94999 15.293 10.121 14.121Z" fill="white"/>
<path d="M5.879 14.121C6.465 14.707 12.293 20.535 12.879 21.121C14.051 22.293 15.95 22.293 17.122 21.121C18.294 19.949 18.294 18.05 17.122 16.878C16.536 16.292 10.708 10.464 10.122 9.87802C8.95 8.70602 7.051 8.70602 5.879 9.87802C4.707 11.05 4.707 12.95 5.879 14.121Z" fill="white"/>
</g>
<defs>
<clipPath id="clip0_20_928">
<rect width="24" height="24" fill="white"/>
</clipPath>
</defs>
</svg>
