<svg width="24" height="24" viewBox="0 0 24 24" fill="none" xmlns="http://www.w3.org/2000/svg">
<g clip-path="url(#clip0_26_3626)">
<path opacity="0.35" d="M16.1379 4.55171C15.9079 4.78178 14.1128 6.57681 12 8.68964C9.88717 6.57681 8.09214 4.78178 7.86207 4.55171C6.94758 3.63722 5.4662 3.63722 4.55172 4.55171C3.63724 5.46619 3.63724 6.94757 4.55172 7.86205C4.78179 8.09212 6.57683 9.88715 8.68965 12C6.57683 14.1128 4.78179 15.9078 4.55172 16.1379C3.63724 17.0524 3.63724 18.5338 4.55172 19.4483C5.4662 20.3627 6.94758 20.3627 7.86207 19.4483C8.02758 19.2827 19.2828 8.02757 19.4483 7.86205C20.3628 6.94757 20.3628 5.46619 19.4483 4.55171C18.5338 3.63722 17.0524 3.63722 16.1379 4.55171Z" fill="white"/>
<path d="M19.4483 19.4483C20.3628 18.5338 20.3628 17.0524 19.4483 16.1379C19.2182 15.9079 17.4232 14.1128 15.3103 12L12 15.3103C14.1128 17.4232 15.9079 19.2182 16.1379 19.4483C17.0524 20.3628 18.5338 20.3628 19.4483 19.4483Z" fill="white"/>
</g>
<defs>
<clipPath id="clip0_26_3626">
<rect width="24" height="24" fill="white"/>
</clipPath>
</defs>
</svg>
