<svg width="24" height="24" viewBox="0 0 24 24" fill="none" xmlns="http://www.w3.org/2000/svg">
<g clip-path="url(#clip0_19_460)">
<path opacity="0.35" d="M16.586 3.586C16.211 3.211 15.702 3 15.172 3H8.828C8.298 3 7.789 3.211 7.414 3.586L6 5V18C6 19.657 7.343 21 9 21H15C16.657 21 18 19.657 18 18V5L16.586 3.586Z" fill="white"/>
<path d="M9 3C9 4.657 10.343 6 12 6C13.657 6 15 4.657 15 3H9Z" fill="white"/>
<path d="M19.788 6.788L18 5V12H19C20.105 12 21 11.105 21 10V9.714C21 8.617 20.564 7.564 19.788 6.788Z" fill="white"/>
<path d="M4.212 6.788L6 5V12H5C3.895 12 3 11.105 3 10V9.714C3 8.617 3.436 7.564 4.212 6.788Z" fill="white"/>
</g>
<defs>
<clipPath id="clip0_19_460">
<rect width="24" height="24" fill="white"/>
</clipPath>
</defs>
</svg>
