<svg width="32" height="32" viewBox="0 0 32 32" fill="none" xmlns="http://www.w3.org/2000/svg">
<g clip-path="url(#clip0_25_2956)">
<path opacity="0.35" d="M24 28H8C5.79067 28 4 26.2093 4 24V8C4 5.79067 5.79067 4 8 4H24C26.2093 4 28 5.79067 28 8V24C28 26.2093 26.2093 28 24 28Z" fill="#E9B727"/>
<path d="M27.9547 3.24138C26.632 2.28938 24.776 2.56938 23.6227 3.72271L14.292 13.0534C13.6787 13.6667 13.3333 14.4987 13.3333 15.3667V17.3814C13.3333 18.076 13.896 18.64 14.592 18.64H16.6067C17.4747 18.64 18.3067 18.2947 18.92 17.6814L28.3747 8.22671C29.78 6.82138 29.64 4.45471 27.9547 3.24138Z" fill="#E9B727"/>
</g>
<defs>
<clipPath id="clip0_25_2956">
<rect width="32" height="32" fill="white"/>
</clipPath>
</defs>
</svg>
