<svg width="24" height="24" viewBox="0 0 24 24" fill="none" xmlns="http://www.w3.org/2000/svg">
<path opacity="0.35" d="M13.879 9.87898C13.293 10.465 7.46498 16.293 6.87898 16.879C5.70698 18.051 5.70698 19.95 6.87898 21.122C8.05098 22.294 9.94998 22.294 11.122 21.122C11.708 20.536 17.536 14.708 18.122 14.122C19.294 12.95 19.294 11.051 18.122 9.87898C16.95 8.70698 15.05 8.70698 13.879 9.87898Z" fill="black"/>
<path d="M18.121 9.87898C17.535 9.29298 11.707 3.46498 11.121 2.87898C9.949 1.70698 8.05 1.70698 6.878 2.87898C5.706 4.05098 5.706 5.94998 6.878 7.12198C7.464 7.70798 13.292 13.536 13.878 14.122C15.05 15.294 16.949 15.294 18.121 14.122C19.293 12.95 19.293 11.05 18.121 9.87898Z" fill="black"/>
</svg>
