<svg width="24" height="24" viewBox="0 0 24 24" fill="none" xmlns="http://www.w3.org/2000/svg">
<g clip-path="url(#clip0_20_1629)">
<path opacity="0.35" d="M18 21H6C4.343 21 3 19.657 3 18V6C3 4.343 4.343 3 6 3H18C19.657 3 21 4.343 21 6V18C21 19.657 19.657 21 18 21Z" fill="white"/>
<path d="M20.966 2.43097C19.974 1.71697 18.582 1.92697 17.717 2.79197L10.719 9.78997C10.259 10.25 10 10.874 10 11.525V13.036C10 13.557 10.422 13.98 10.944 13.98H12.455C13.106 13.98 13.73 13.721 14.19 13.261L21.281 6.16997C22.335 5.11597 22.23 3.34097 20.966 2.43097Z" fill="white"/>
</g>
<defs>
<clipPath id="clip0_20_1629">
<rect width="24" height="24" fill="white"/>
</clipPath>
</defs>
</svg>
