<svg width="20" height="20" viewBox="0 0 20 20" fill="none" xmlns="http://www.w3.org/2000/svg">
<g clip-path="url(#clip0_208_2111)">
<path opacity="0.35" d="M1.89062 13.0208C0.494792 11.2458 0.494792 8.75333 1.89062 6.97833C3.52896 4.89583 6.23229 2.5 9.99979 2.5C13.7673 2.5 16.4706 4.89583 18.109 6.97917C19.5048 8.75417 19.5048 11.2467 18.109 13.0217C16.4706 15.1042 13.7673 17.5 9.99979 17.5C6.23229 17.5 3.52896 15.1042 1.89062 13.0208Z" fill="#9C9C9C"/>
<path d="M10 5C7.23833 5 5 7.23833 5 10C5 12.7617 7.23833 15 10 15C12.7617 15 15 12.7617 15 10C15 7.23833 12.7617 5 10 5ZM10.8333 10.8333C9.9125 10.8333 9.16667 10.0875 9.16667 9.16667C9.16667 8.24583 9.9125 7.5 10.8333 7.5C11.7542 7.5 12.5 8.24583 12.5 9.16667C12.5 10.0875 11.7542 10.8333 10.8333 10.8333Z" fill="#9C9C9C"/>
</g>
<defs>
<clipPath id="clip0_208_2111">
<rect width="20" height="20" fill="white"/>
</clipPath>
</defs>
</svg>
