<svg width="24" height="24" viewBox="0 0 24 24" fill="none" xmlns="http://www.w3.org/2000/svg">
<g clip-path="url(#clip0_25_2522)">
<path opacity="0.35" d="M18 23L17 20H5C3.343 20 2 18.657 2 17V7C2 5.343 3.343 4 5 4H19C20.657 4 22 5.343 22 7V17C22 17.351 23 20 23 20L21 23H18Z" fill="white"/>
<path d="M17 10C18.1046 10 19 9.10457 19 8C19 6.89543 18.1046 6 17 6C15.8954 6 15 6.89543 15 8C15 9.10457 15.8954 10 17 10Z" fill="white"/>
<path d="M14.119 13.992C14.077 13.993 14.043 14 14 14C11.557 14 10 9 8 9C6 9 4 13.362 4 16C4 16.548 4.448 17 5 17H12.295C12.64 15.844 13.276 14.814 14.119 13.992Z" fill="white"/>
<path d="M19 14C16.24 14 14 16.24 14 19C14 21.76 16.24 24 19 24C21.76 24 24 21.76 24 19C24 16.24 21.76 14 19 14ZM21.5 20H20V21.5C20 22.05 19.55 22.5 19 22.5C18.45 22.5 18 22.05 18 21.5V20H16.5C15.95 20 15.5 19.55 15.5 19C15.5 18.45 15.95 18 16.5 18H18V16.5C18 15.95 18.45 15.5 19 15.5C19.55 15.5 20 15.95 20 16.5V18H21.5C22.05 18 22.5 18.45 22.5 19C22.5 19.55 22.05 20 21.5 20Z" fill="white"/>
</g>
<defs>
<clipPath id="clip0_25_2522">
<rect width="24" height="24" fill="white"/>
</clipPath>
</defs>
</svg>
