<svg width="62" height="62" viewBox="0 0 62 62" fill="none" xmlns="http://www.w3.org/2000/svg">
<g opacity="0.4">
<path opacity="0.35" d="M49.0833 10.3334H12.9167C8.63645 10.3334 5.16666 13.8032 5.16666 18.0834V43.9167C5.16666 48.1969 8.63645 51.6667 12.9167 51.6667H49.0833C53.3635 51.6667 56.8333 48.1969 56.8333 43.9167V18.0834C56.8333 13.8032 53.3635 10.3334 49.0833 10.3334Z" fill="black"/>
<path d="M43.9167 25.8333C46.7701 25.8333 49.0833 23.5201 49.0833 20.6667C49.0833 17.8132 46.7701 15.5 43.9167 15.5C41.0632 15.5 38.75 17.8132 38.75 20.6667C38.75 23.5201 41.0632 25.8333 43.9167 25.8333Z" fill="black"/>
<path d="M40.2638 43.9167H49.0833C49.7685 43.9167 50.4256 43.6445 50.91 43.16C51.3945 42.6756 51.6667 42.0185 51.6667 41.3333C51.6667 37.8097 47.306 33.5833 45.2083 33.5833C43.1107 33.5833 41.2093 36.1667 36.1667 36.1667C29.8556 36.1667 25.8333 23.25 20.6667 23.25C20.3476 23.2518 20.0299 23.2935 19.7212 23.374L40.2638 43.9167Z" fill="black"/>
<path d="M15.6008 26.5619C12.4443 30.8679 10.6136 36.0017 10.3333 41.3334C10.3333 42.0185 10.6055 42.6756 11.09 43.1601C11.5745 43.6446 12.2315 43.9167 12.9167 43.9167H32.9582L15.6008 26.5619Z" fill="black"/>
<path d="M54.25 56.8333C53.5649 56.8331 52.9079 56.5609 52.4236 56.0764L5.9236 9.57637C5.45302 9.08915 5.19264 8.43659 5.19852 7.75925C5.20441 7.08191 5.4761 6.43398 5.95507 5.95501C6.43404 5.47603 7.08197 5.20435 7.75931 5.19846C8.43665 5.19258 9.08921 5.45296 9.57643 5.92354L56.0764 52.4235C56.4376 52.7848 56.6836 53.2451 56.7832 53.7461C56.8828 54.2472 56.8317 54.7665 56.6362 55.2385C56.4407 55.7104 56.1097 56.1139 55.6849 56.3977C55.2602 56.6816 54.7609 56.8332 54.25 56.8333Z" fill="black"/>
</g>
</svg>
