<svg width="24" height="24" viewBox="0 0 24 24" fill="none" xmlns="http://www.w3.org/2000/svg">
<g clip-path="url(#clip0_19_495)">
<g clip-path="url(#clip1_19_495)">
<path opacity="0.35" d="M24 17H21.728C21.747 16.927 21.776 16.859 21.791 16.785L22.951 10.991C23.099 10.253 22.91 9.497 22.433 8.916C21.957 8.333 21.252 8 20.5 8H3.5C2.748 8 2.043 8.333 1.567 8.916C1.09 9.498 0.901005 10.254 1.049 10.991L2.209 16.785C2.582 18.648 4.231 20 6.131 20H17.869C18.864 20 19.786 19.622 20.496 19H24V17Z" fill="white"/>
<path d="M8.731 8L11.196 4.432C11.386 4.157 11.676 4.02 12.022 4C12.356 4 12.657 4.16 12.845 4.436L15.279 8H17.701L14.496 3.307C13.938 2.491 13.015 2.002 12.026 2C11.067 2.006 10.112 2.481 9.55 3.295L6.3 8H8.731Z" fill="white"/>
<path d="M22 14H12C10.895 14 10 14.895 10 16V17H24V16C24 14.895 23.105 14 22 14Z" fill="white"/>
<path d="M10 22C10 23.105 10.895 24 12 24H22C23.105 24 24 23.105 24 22V19H10V22Z" fill="white"/>
</g>
</g>
<defs>
<clipPath id="clip0_19_495">
<rect width="24" height="24" fill="white"/>
</clipPath>
<clipPath id="clip1_19_495">
<rect width="24" height="24" fill="white"/>
</clipPath>
</defs>
</svg>
