<svg width="24" height="24" viewBox="0 0 24 24" fill="none" xmlns="http://www.w3.org/2000/svg">
<path d="M19.9035 21.4989H4.09551C3.05351 21.4989 2.13751 20.8709 1.76251 19.8979C1.38751 18.9249 1.64551 17.8449 2.41751 17.1449L8.31051 11.8149C10.4125 9.91185 13.5845 9.91185 15.6905 11.8149L21.5815 17.1449C22.3545 17.8449 22.6125 18.9249 22.2375 19.8979C21.8625 20.8709 20.9455 21.4989 19.9035 21.4989ZM5.39351 18.4989H18.6065L13.6775 14.0399C12.7205 13.1749 11.2785 13.1749 10.3235 14.0399L5.39351 18.4989Z" fill="white"/>
<path opacity="0.35" d="M11.6445 13.126C11.5045 13.126 11.3625 13.106 11.2215 13.065C10.4265 12.832 9.97053 11.999 10.2035 11.204C10.5435 10.044 11.3145 8.98298 12.3755 8.21598C12.8545 7.86998 13.0785 7.30898 12.9745 6.71398C12.8715 6.12798 12.3705 5.62698 11.7845 5.52398C11.3235 5.44298 10.8825 5.55998 10.5365 5.84898C10.1945 6.13598 9.99953 6.55498 9.99953 6.99898C9.99953 7.82798 9.32753 8.49898 8.49953 8.49898C7.67153 8.49898 6.99953 7.82798 6.99953 6.99898C6.99953 5.66598 7.58553 4.40998 8.60653 3.55198C9.62753 2.69498 10.9715 2.33898 12.3025 2.56998C14.1175 2.88898 15.6095 4.38098 15.9285 6.19598C16.2315 7.92398 15.5425 9.62998 14.1315 10.649C13.6085 11.027 13.2355 11.524 13.0815 12.048C12.8915 12.702 12.2925 13.126 11.6445 13.126Z" fill="white"/>
</svg>
