<svg width="24" height="24" viewBox="0 0 24 24" fill="none" xmlns="http://www.w3.org/2000/svg">
<g clip-path="url(#clip0_19_480)">
<path d="M20.5 22H3.5C2.672 22 2 21.328 2 20.5C2 19.672 2.672 19 3.5 19H20.5C21.328 19 22 19.672 22 20.5C22 21.328 21.328 22 20.5 22Z" fill="white"/>
<path opacity="0.35" d="M21.896 5.626C21.333 4.777 20.158 4.465 19.177 4.897L13.824 7.239L6.372 2.696C5.92 2.42 5.35 2.442 4.921 2.751C4.614 2.971 4.417 3.311 4.379 3.686C4.341 4.061 4.465 4.434 4.72 4.711L8.997 9.354L5.492 10.939L4.284 10.203C3.805 9.913 3.194 9.954 2.761 10.303C2.233 10.726 2.108 11.477 2.468 12.049L3.374 13.487C3.987 14.46 5.025 15.005 6.106 15.005C6.544 15.005 6.99 14.915 7.417 14.729L20.977 8.794C21.56 8.538 21.998 8.042 22.176 7.431C22.354 6.819 22.253 6.162 21.896 5.626Z" fill="white"/>
</g>
<defs>
<clipPath id="clip0_19_480">
<rect width="24" height="24" fill="white"/>
</clipPath>
</defs>
</svg>
