<svg width="24" height="24" viewBox="0 0 24 24" fill="none" xmlns="http://www.w3.org/2000/svg">
<path opacity="0.35" d="M20 5C20 3.343 18.657 2 17 2H7C5.343 2 4 3.343 4 5V19H20V5Z" fill="white"/>
<path d="M14 14C14.5523 14 15 13.5523 15 13C15 12.4477 14.5523 12 14 12C13.4477 12 13 12.4477 13 13C13 13.5523 13.4477 14 14 14Z" fill="white"/>
<path d="M10 14C10.5523 14 11 13.5523 11 13C11 12.4477 10.5523 12 10 12C9.44772 12 9 12.4477 9 13C9 13.5523 9.44772 14 10 14Z" fill="white"/>
<path d="M5.5 22C6.152 22 6.702 21.581 6.908 21H17.092C17.299 21.581 17.848 22 18.5 22C19.328 22 20 21.328 20 20.5V19H4V20.5C4 21.328 4.672 22 5.5 22Z" fill="white"/>
</svg>
